<svg xmlns="http://www.w3.org/2000/svg" width="15.179" height="14.321" viewBox="0 0 15.179 14.321">
  <g id="グループ_10987" data-name="グループ 10987" transform="translate(-1248.82 -718)">
    <path id="パス_317" data-name="パス 317" d="M1.193,14.489a1.193,1.193,0,1,0,1.193,1.193A1.193,1.193,0,0,0,1.193,14.489Z" transform="translate(1248.82 703.511)" fill="#fff"/>
    <rect id="長方形_22906" data-name="長方形 22906" width="10.788" height="2.387" transform="translate(1253.211 718)" fill="#fff"/>
    <path id="パス_318" data-name="パス 318" d="M1.193,215.748a1.193,1.193,0,1,0,1.193,1.193A1.193,1.193,0,0,0,1.193,215.748Z" transform="translate(1248.82 508.219)" fill="#fff"/>
    <rect id="長方形_22907" data-name="長方形 22907" width="10.788" height="2.387" transform="translate(1253.211 723.967)" fill="#fff"/>
    <path id="パス_319" data-name="パス 319" d="M1.193,417.007A1.193,1.193,0,1,0,2.387,418.2,1.193,1.193,0,0,0,1.193,417.007Z" transform="translate(1248.82 312.927)" fill="#fff"/>
    <rect id="長方形_22908" data-name="長方形 22908" width="10.788" height="2.387" transform="translate(1253.211 729.934)" fill="#fff"/>
  </g>
</svg>
