<svg xmlns="http://www.w3.org/2000/svg" width="13.952" height="16" viewBox="0 0 13.952 16">
  <g id="グループ_10986" data-name="グループ 10986" transform="translate(-1248 -566)">
    <path id="パス_14890" data-name="パス 14890" d="M33.417,127.643h1.64a.654.654,0,0,0,0-1.307h-1.64a.654.654,0,0,0,0,1.307Z" transform="translate(1215.236 443.612)" fill="#fff"/>
    <path id="パス_14891" data-name="パス 14891" d="M69.4,0H60.074A1.478,1.478,0,0,0,58.6,1.478V3.264h1.223V1.478a.256.256,0,0,1,.255-.255H69.4a1.121,1.121,0,0,1,1.122,1.122V13.656A1.122,1.122,0,0,1,69.4,14.777H60.074a.256.256,0,0,1-.255-.255V12.736H58.6v1.786A1.478,1.478,0,0,0,60.074,16H69.4a2.345,2.345,0,0,0,2.345-2.344V2.345A2.345,2.345,0,0,0,69.4,0Z" transform="translate(1190.211 566)" fill="#fff"/>
    <rect id="長方形_24144" data-name="長方形 24144" width="1.223" height="4.121" transform="translate(1248.809 571.939)" fill="#fff"/>
    <path id="パス_14892" data-name="パス 14892" d="M35.711,344.485a.654.654,0,0,0-.653-.654h-1.64a.654.654,0,0,0,0,1.307h1.64A.653.653,0,0,0,35.711,344.485Z" transform="translate(1215.236 232.914)" fill="#fff"/>
    <rect id="長方形_24145" data-name="長方形 24145" width="5.503" height="0.917" transform="translate(1252.936 570.268)" fill="#fff"/>
    <rect id="長方形_24146" data-name="長方形 24146" width="5.503" height="0.917" transform="translate(1252.936 573.63)" fill="#fff"/>
    <rect id="長方形_24147" data-name="長方形 24147" width="3.363" height="0.917" transform="translate(1252.936 576.993)" fill="#fff"/>
  </g>
</svg>
