<svg xmlns="http://www.w3.org/2000/svg" width="20.412" height="13.393" viewBox="0 0 20.412 13.393">
  <g id="フリーダイヤルのアイコン" transform="translate(0 -88.032)">
    <path id="パス_12668" data-name="パス 12668" d="M0,88.032V90.12a12.035,12.035,0,0,1,4.391.821q.363.143.7.307a11.126,11.126,0,0,1,1.662-.637,12.218,12.218,0,0,1,3.45-.491,12.04,12.04,0,0,1,4.409.821q.363.143.7.307a11.135,11.135,0,0,1,1.662-.637,12.224,12.224,0,0,1,3.432-.491V88.032Z" fill="#7f5023"/>
    <path id="パス_12669" data-name="パス 12669" d="M320.59,209.183a2.538,2.538,0,0,0,3.956,2.1,2.532,2.532,0,0,0,1.119-2.1,2.165,2.165,0,0,0-.163-.8,3.517,3.517,0,0,0-.5-.861,6.415,6.415,0,0,0-1.87-1.558,6.9,6.9,0,0,0-1.535,1.174,3.813,3.813,0,0,0-.874,1.338A2.118,2.118,0,0,0,320.59,209.183Z" transform="translate(-307.809 -113.232)" fill="#7f5023"/>
    <path id="パス_12670" data-name="パス 12670" d="M17.8,174.968a5.119,5.119,0,0,1,1.166,1.812,3.435,3.435,0,0,1,.2,1.143,3.853,3.853,0,1,1-7.706,0,3.654,3.654,0,0,1,.442-1.689,5.745,5.745,0,0,1,1.164-1.5,8.009,8.009,0,0,1,.834-.683c-.2-.074-.408-.143-.621-.206a10.914,10.914,0,0,0-3.079-.437,10.764,10.764,0,0,0-3.7.643,7.718,7.718,0,0,1,1.071.917,5.122,5.122,0,0,1,1.166,1.812,3.432,3.432,0,0,1,.2,1.143,3.853,3.853,0,1,1-7.706,0,3.656,3.656,0,0,1,.442-1.689,5.746,5.746,0,0,1,1.164-1.5,7.986,7.986,0,0,1,.834-.683c-.2-.074-.408-.143-.621-.206A10.918,10.918,0,0,0,0,173.409V183.4H20.412v-9.989a10.766,10.766,0,0,0-3.681.643A7.716,7.716,0,0,1,17.8,174.968Z" transform="translate(0 -81.973)" fill="#7f5023"/>
    <path id="パス_12671" data-name="パス 12671" d="M64.118,209.183a2.538,2.538,0,0,0,3.955,2.1,2.533,2.533,0,0,0,1.119-2.1,2.171,2.171,0,0,0-.163-.8,3.527,3.527,0,0,0-.5-.861,6.421,6.421,0,0,0-1.87-1.558,6.893,6.893,0,0,0-1.535,1.174,3.813,3.813,0,0,0-.874,1.338A2.116,2.116,0,0,0,64.118,209.183Z" transform="translate(-61.562 -113.232)" fill="#7f5023"/>
  </g>
</svg>
