<svg xmlns="http://www.w3.org/2000/svg" width="183" height="42" viewBox="0 0 183 42">
  <g id="グループ_6659" data-name="グループ 6659" transform="translate(-995 -22)">
    <text id="いーな" transform="translate(1088 34)" fill="#336613" font-size="10" font-family="ZenKakuGothicNew-Medium, Zen Kaku Gothic New" font-weight="500" letter-spacing="0.1em"><tspan x="0" y="0">いーな</tspan></text>
    <text id="いいござ" transform="translate(1131 34)" fill="#336613" font-size="10" font-family="ZenKakuGothicNew-Medium, Zen Kaku Gothic New" font-weight="500" letter-spacing="0.1em"><tspan x="0" y="0">いいござ</tspan></text>
    <g id="グループ_3041" data-name="グループ 3041" transform="translate(-460 14)">
      <g id="グループ_3040" data-name="グループ 3040" transform="translate(-49)">
        <text id="_0120-17-1153" data-name="0120-17-1153" transform="translate(1532 43)" fill="#336613" font-size="24" font-family="ZenKakuGothicNew-Bold, Zen Kaku Gothic New" font-weight="700" letter-spacing="0.1em"><tspan x="0" y="0">0120-17-1153</tspan></text>
        <g id="グループ_1876" data-name="グループ 1876" transform="translate(1504 25)">
          <g id="電話の受話器のアイコン素材" transform="translate(1.878)">
            <path id="パス_302" data-name="パス 302" d="M61.168.847c-1.46.891-1.747,3.677-1.2,5.948a19.878,19.878,0,0,0,2.881,6.374,21.882,21.882,0,0,0,5.007,5.075c1.978,1.4,4.8,2.289,6.257,1.4A7.133,7.133,0,0,0,76,17.739L75.218,16.6l-2.157-3.13c-.16-.233-1.165-.02-1.676.252a4.678,4.678,0,0,0-1.323,1.353c-.472.257-.868,0-1.694-.357A9.755,9.755,0,0,1,65.3,11.673,9.171,9.171,0,0,1,63.6,7.8c-.01-.856-.1-1.3.345-1.6A5.08,5.08,0,0,0,65.8,5.609c.472-.328,1.088-1.1.928-1.338l-2.157-3.13L63.783,0A7.716,7.716,0,0,0,61.168.847Z" transform="translate(-59.712 0.001)" fill="#336613"/>
          </g>
          <rect id="長方形_2366" data-name="長方形 2366" width="20" height="19.954" transform="translate(0 0.046)" fill="none"/>
        </g>
      </g>
    </g>
  </g>
</svg>
