<svg xmlns="http://www.w3.org/2000/svg" xmlns:xlink="http://www.w3.org/1999/xlink" width="34" height="34" viewBox="0 0 34 34">
  <defs>
    <clipPath id="clip-path">
      <rect id="長方形_23970" data-name="長方形 23970" width="34" height="34" transform="translate(-1355)" fill="none"/>
    </clipPath>
  </defs>
  <g id="マスクグループ_61" data-name="マスクグループ 61" transform="translate(1355)" clip-path="url(#clip-path)">
    <g id="メールの無料アイコンその8" transform="translate(-1353.211 5.369)">
      <path id="パス_11303" data-name="パス 11303" d="M30.343,58.374a4.055,4.055,0,0,0-.871-1.8,3.568,3.568,0,0,0-.287-.309,4.267,4.267,0,0,0-2.984-1.2H4.22a4.273,4.273,0,0,0-2.983,1.2,3.644,3.644,0,0,0-.287.309,4.006,4.006,0,0,0-.868,1.8,3.877,3.877,0,0,0-.082.8V74.214A4.081,4.081,0,0,0,1.236,77.12c.094.092.188.176.291.26a4.284,4.284,0,0,0,2.693.945H26.2a4.257,4.257,0,0,0,2.693-.948,3.609,3.609,0,0,0,.291-.256,4.111,4.111,0,0,0,.891-1.274v0a3.978,3.978,0,0,0,.345-1.629V59.173A4.12,4.12,0,0,0,30.343,58.374Zm-27.579-.62a2.066,2.066,0,0,1,1.456-.589H26.2a2.058,2.058,0,0,1,1.456.589,2.006,2.006,0,0,1,.185.211L16.321,67.747a1.725,1.725,0,0,1-2.222,0L2.583,57.961A1.528,1.528,0,0,1,2.763,57.754Zm-.6,16.46V60.137L10.5,67.223,2.163,74.3A.585.585,0,0,1,2.159,74.214ZM26.2,76.222H4.22a2.074,2.074,0,0,1-1.02-.263l8.792-7.465.821.7a3.726,3.726,0,0,0,4.8,0l.82-.7,8.789,7.465A2.077,2.077,0,0,1,26.2,76.222Zm2.061-2.007a.611.611,0,0,1,0,.088l-8.333-7.075,8.337-7.087Z" transform="translate(0 -55.062)" fill="#fff"/>
    </g>
  </g>
</svg>
